<?xml version="1.0" encoding="utf-8"?>
<!-- Generator: Adobe Illustrator 24.0.1, SVG Export Plug-In . SVG Version: 6.00 Build 0)  -->
<svg version="1.1" id="Ebene_1" xmlns="http://www.w3.org/2000/svg" xmlns:xlink="http://www.w3.org/1999/xlink" x="0px" y="0px"
	 viewBox="0 0 757 102" style="enable-background:new 0 0 757 102;" xml:space="preserve">
<style type="text/css">
	.st0{opacity:3.000000e-02;}
	.st1{fill:#262834;}
</style>
<title>PROJECTS</title>
<desc>Created with Sketch.</desc>
<g class="st0">
	<path class="st1" d="M41.2,96.1c-8.2,0-15.4-1.5-21.6-4.6c-6.2-3.1-11-7.8-14.5-14.2C1.7,70.9,0,62.7,0,52.9
		c0-14.3,3.6-25.1,10.9-32.4c7.3-7.3,17.4-11,30.3-11c8.2,0,15.4,1.5,21.6,4.6c6.2,3.1,11,7.8,14.5,14.1c3.5,6.4,5.2,14.5,5.2,24.5
		c0,14.3-3.6,25.1-10.9,32.4C64.4,92.4,54.3,96.1,41.2,96.1z M41.2,77.9c3.7,0,6.9-0.8,9.6-2.4c2.7-1.6,4.7-4.2,6.2-7.9
		c1.5-3.7,2.2-8.7,2.2-15c0-6.2-0.7-11.2-2.2-14.8c-1.5-3.7-3.5-6.3-6.2-7.8c-2.7-1.5-5.9-2.3-9.6-2.3c-3.7,0-6.9,0.8-9.6,2.4
		c-2.7,1.6-4.7,4.3-6.2,7.9c-1.5,3.7-2.2,8.6-2.2,15c0,6.2,0.7,11.2,2.2,14.8c1.5,3.6,3.5,6.2,6.2,7.8
		C34.3,77.1,37.5,77.9,41.2,77.9z"/>
	<path class="st1" d="M135.2,97.2c-13.2,0-23.1-2.7-29.6-8c-6.5-5.3-9.8-13.7-9.8-25.3V11.2h23.6v51.5c0,5.9,1.2,10.3,3.5,13.1
		c2.3,2.8,6.1,4.2,11.2,4.2c4.6,0,8.2-1.4,10.8-4.2c2.6-2.8,3.9-7.2,3.9-13.1V11.2h21.4V64c0,7.7-1.5,14-4.5,18.9
		c-3,4.9-7.1,8.5-12.4,10.8C148.1,96.1,142,97.2,135.2,97.2z"/>
	<path class="st1" d="M187.2,94.4V11.2H229c9.6,0,17.2,2.2,22.8,6.7c5.6,4.4,8.3,11.2,8.3,20.1c0,3.4-0.7,6.9-2.1,10.3
		c-1.4,3.5-3.4,6.5-6.2,9.2c-2.8,2.6-6.3,4.4-10.5,5.3l-2.5-7.6l25.8,39.1h-28.9l-20.1-35.8l9.8,8.2h-15.8v27.5H187.2z M209.7,50.6
		h16.1c2.8,0,5.2-0.9,7.1-2.6c1.9-1.7,2.9-4.7,2.9-8.8c0-3.7-0.9-6.4-2.7-8.1c-1.8-1.7-4.1-2.6-6.8-2.6h-16.6V50.6z"/>
	<path class="st1" d="M340.6,96.1c-4.2,0-8.1-0.2-11.7-0.5c-3.6-0.3-6.9-0.9-9.9-1.7c-3-0.8-5.9-1.8-8.7-3.2V69.6
		c4.2,3.2,8.7,5.6,13.6,7.2c4.9,1.5,9.3,2.3,13.3,2.3c3.2,0,5.7-0.6,7.6-1.7c1.9-1.2,2.9-3.2,2.9-6c0-1.9-0.9-3.5-2.8-4.7
		c-1.9-1.2-4.4-2.3-7.5-3.2c-3.1-1-6.6-2.1-10.5-3.4c-2.3-0.8-4.6-1.8-6.8-3c-2.2-1.2-4.2-2.6-6-4.4c-1.8-1.7-3.2-3.9-4.2-6.5
		c-1-2.6-1.6-5.7-1.6-9.3c0-3.7,0.7-7.1,2.1-10.5c1.4-3.3,3.4-6.3,6.2-8.8c2.7-2.6,6.2-4.6,10.5-6c4.2-1.5,9.2-2.2,14.8-2.2
		c3.4,0,6.5,0.2,9.2,0.6s5.3,1,7.8,1.8c2.4,0.8,4.9,1.9,7.4,3.1v21.4c-1.8-1.6-4-3.1-6.4-4.5c-2.5-1.4-5-2.6-7.7-3.6
		c-2.7-1-5.3-1.6-8-1.7c-2.2-0.1-4.3,0.1-6.3,0.6c-2,0.5-3.5,1.3-4.7,2.4c-1.2,1.2-1.7,2.7-1.7,4.7c0,2.1,0.7,3.7,2,4.9
		c1.3,1.2,3.2,2.2,5.7,3c2.4,0.8,5.2,1.7,8.2,2.5c3.5,1,6.7,2.1,9.5,3.4c2.9,1.2,5.3,2.8,7.4,4.6c2.1,1.8,3.7,4,4.9,6.7
		c1.2,2.6,1.7,5.8,1.7,9.5c0,5.3-1.2,10.1-3.7,14.2c-2.5,4.2-6,7.4-10.5,9.8C352,94.9,346.7,96.1,340.6,96.1z"/>
	<path class="st1" d="M400.7,94.4V28.4h-22.2V11.2h67.2v17.2h-22.6v65.9H400.7z"/>
	<path class="st1" d="M496.6,97.2c-13.2,0-23.1-2.7-29.6-8c-6.5-5.3-9.8-13.7-9.8-25.3V11.2h23.6v51.5c0,5.9,1.2,10.3,3.5,13.1
		c2.3,2.8,6.1,4.2,11.2,4.2c4.6,0,8.2-1.4,10.8-4.2c2.6-2.8,3.9-7.2,3.9-13.1V11.2h21.4V64c0,7.7-1.5,14-4.5,18.9
		c-3,4.9-7.1,8.5-12.4,10.8C509.4,96.1,503.4,97.2,496.6,97.2z"/>
	<path class="st1" d="M548.5,94.4V11.2h34.9c14.4,0,24.9,3.5,31.6,10.6c6.7,7.1,10,17.4,10,31c0,13.5-3.3,23.8-10,30.9
		c-6.7,7.1-17.2,10.6-31.6,10.6H548.5z M571.1,77.2h9.6c6.8,0,12-1.9,15.7-5.8c3.7-3.9,5.5-10,5.5-18.5c0-8.6-1.8-14.8-5.5-18.6
		c-3.7-3.9-8.9-5.8-15.7-5.8h-9.6V77.2z"/>
	<path class="st1" d="M638.4,94.4V11.2h22.7v83.1H638.4z"/>
	<path class="st1" d="M715.6,96.1c-8.2,0-15.4-1.5-21.6-4.6c-6.2-3.1-11-7.8-14.5-14.2c-3.4-6.4-5.2-14.5-5.2-24.4
		c0-14.3,3.6-25.1,10.9-32.4c7.3-7.3,17.4-11,30.3-11c8.2,0,15.4,1.5,21.6,4.6c6.2,3.1,11,7.8,14.5,14.1c3.5,6.4,5.2,14.5,5.2,24.5
		c0,14.3-3.6,25.1-10.9,32.4C738.8,92.4,728.7,96.1,715.6,96.1z M715.6,77.9c3.7,0,6.9-0.8,9.6-2.4c2.7-1.6,4.7-4.2,6.2-7.9
		c1.5-3.7,2.2-8.7,2.2-15c0-6.2-0.7-11.2-2.2-14.8c-1.5-3.7-3.5-6.3-6.2-7.8c-2.7-1.5-5.9-2.3-9.6-2.3c-3.7,0-6.9,0.8-9.6,2.4
		c-2.7,1.6-4.7,4.3-6.2,7.9c-1.5,3.7-2.2,8.6-2.2,15c0,6.2,0.7,11.2,2.2,14.8c1.5,3.6,3.5,6.2,6.2,7.8
		C708.7,77.1,711.9,77.9,715.6,77.9z"/>
</g>
</svg>
