<?xml version="1.0" encoding="utf-8"?>
<!-- Generator: Adobe Illustrator 24.0.1, SVG Export Plug-In . SVG Version: 6.00 Build 0)  -->
<svg version="1.1" id="Ebene_1" xmlns="http://www.w3.org/2000/svg" xmlns:xlink="http://www.w3.org/1999/xlink" x="0px" y="0px"
	 viewBox="0 0 757 102" style="enable-background:new 0 0 757 102;" xml:space="preserve">
<style type="text/css">
	.st0{opacity:3.000000e-02;}
	.st1{fill:#262834;}
</style>
<title>PROJECTS</title>
<desc>Created with Sketch.</desc>
<g id="Page-1" class="st0">
	<g id="STUDIO" transform="translate(-279.000000, -246.000000)">
		<g id="BEYOND-" transform="translate(-34.000000, 239.000000)">
			<path id="PROJECTS" class="st1" d="M356,9c8.7,0,16.2,1.4,22.6,4.3s11.3,7,14.8,12.3c3.5,5.3,5.2,11.6,5.2,18.9
				c0,7.2-1.7,13.5-5.2,18.8c-3.5,5.4-8.4,9.5-14.8,12.3S364.7,80,356,80h-19.7v27h-22.7V9H356z M354.8,61.5c6.8,0,12-1.5,15.5-4.4
				s5.3-7.1,5.3-12.5c0-5.5-1.8-9.7-5.3-12.7s-8.7-4.4-15.5-4.4h-18.5v34H354.8z M478.5,107l-18.9-27.3h-20.9V107h-22.7V9h42.4
				c8.7,0,16.2,1.4,22.6,4.3s11.3,7,14.8,12.3c3.5,5.3,5.2,11.6,5.2,18.9s-1.7,13.6-5.3,18.8c-3.5,5.3-8.5,9.3-14.9,12.1l22,31.5
				H478.5z M478.1,44.6c0-5.5-1.8-9.7-5.3-12.7c-3.5-2.9-8.7-4.4-15.5-4.4h-18.5v34.2h18.5c6.8,0,12-1.5,15.5-4.5
				C476.3,54.2,478.1,50,478.1,44.6z M566.5,108.7c-10.2,0-19.3-2.2-27.5-6.6c-8.2-4.4-14.6-10.4-19.2-18.1
				c-4.6-7.7-6.9-16.4-6.9-26s2.3-18.3,6.9-26c4.6-7.7,11-13.7,19.2-18.1c8.2-4.4,17.3-6.6,27.5-6.6c10.2,0,19.3,2.2,27.4,6.6
				c8.1,4.4,14.5,10.4,19.2,18.1s7,16.4,7,26s-2.3,18.3-7,26s-11.1,13.7-19.2,18.1C585.8,106.5,576.6,108.7,566.5,108.7z
				 M566.5,89.4c5.8,0,11-1.3,15.7-4c4.7-2.7,8.3-6.4,11-11.1s4-10.2,4-16.2s-1.3-11.5-4-16.2s-6.3-8.5-11-11.1s-9.9-4-15.7-4
				c-5.8,0-11,1.3-15.7,4c-4.7,2.7-8.3,6.4-11,11.1c-2.7,4.8-4,10.2-4,16.2s1.3,11.5,4,16.2c2.7,4.8,6.3,8.5,11,11.1
				C555.4,88,560.7,89.4,566.5,89.4z M655.2,108.7c-6.6,0-12.7-1.2-18.3-3.7c-5.6-2.5-10.1-6-13.7-10.6l12.6-15.1
				c5.3,7.2,11.4,10.8,18.2,10.8c9.2,0,13.9-5.4,13.9-16.2V27.2h-34.4V9h57v63.6c0,12-3,21.1-9,27.1
				C675.6,105.7,666.8,108.7,655.2,108.7z M788.8,88.8V107h-75.9V9H787v18.2h-51.5v21.3h45.5v17.6h-45.5v22.7H788.8z M853.7,108.7
				c-10,0-19-2.2-27.1-6.5c-8.1-4.3-14.4-10.4-19-18.1c-4.6-7.7-6.9-16.4-6.9-26.1s2.3-18.4,6.9-26.1c4.6-7.7,11-13.7,19-18.1
				c8.1-4.3,17.1-6.5,27.2-6.5c8.5,0,16.2,1.5,23,4.5c6.9,3,12.6,7.3,17.3,12.9l-14.6,13.4c-6.6-7.7-14.8-11.5-24.6-11.5
				c-6.1,0-11.5,1.3-16.2,4s-8.5,6.4-11.1,11.1s-4,10.2-4,16.2s1.3,11.5,4,16.2s6.4,8.5,11.1,11.1c4.8,2.7,10.2,4,16.2,4
				c9.8,0,18-3.9,24.6-11.6l14.6,13.4c-4.7,5.7-10.5,10-17.4,13C869.9,107.2,862.2,108.7,853.7,108.7z M929.8,27.5h-31.4V9h85.4
				v18.5h-31.4V107h-22.7V27.5z M1028.2,108.7c-7.7,0-15.2-1-22.5-3.2c-7.2-2.1-13-4.8-17.4-8.2l7.7-17.1c4.2,3.1,9.2,5.6,15,7.4
				c5.8,1.9,11.6,2.8,17.4,2.8c6.4,0,11.2-1,14.3-2.9c3.1-1.9,4.6-4.5,4.6-7.6c0-2.3-0.9-4.3-2.7-5.8c-1.8-1.5-4.2-2.8-7-3.7
				c-2.8-0.9-6.7-2-11.6-3.1c-7.5-1.8-13.6-3.5-18.3-5.3c-4.8-1.8-8.8-4.6-12.3-8.5c-3.4-3.9-5.1-9.1-5.1-15.7
				c0-5.7,1.5-10.8,4.6-15.5s7.7-8.3,13.9-11c6.2-2.7,13.8-4.1,22.8-4.1c6.3,0,12.4,0.7,18.3,2.2s11.2,3.6,15.7,6.4l-7,17.2
				c-9.1-5.1-18.1-7.7-27.2-7.7c-6.3,0-11,1-14.1,3.1c-3,2.1-4.5,4.8-4.5,8.1c0,3.4,1.7,5.9,5.3,7.5c3.5,1.6,8.8,3.2,16,4.8
				c7.5,1.8,13.6,3.5,18.3,5.3s8.8,4.6,12.3,8.4c3.4,3.8,5.1,9,5.1,15.5c0,5.6-1.6,10.7-4.7,15.3c-3.1,4.6-7.8,8.3-14.1,11
				S1037.1,108.7,1028.2,108.7z"/>
		</g>
	</g>
</g>
<text transform="matrix(1 0 0 1 21.9922 213.7891)" style="font-family:'MyriadPro-Regular'; font-size:122.8633px;">Our Studio</text>
</svg>
